<svg width="327" height="93" viewBox="0 0 327 93" fill="none" xmlns="http://www.w3.org/2000/svg">
<path d="M319.8 77.5992C319.9 80.6992 317.8 83.2992 315.6 83.8992C314.9 84.0992 314.1 83.8992 313.4 83.9992C310.3 84.3992 307.3 84.6992 304.3 85.3992C302.9 85.6992 301.6 85.9992 300.2 86.0992H35.1998C34.9998 85.3992 34.7998 84.6992 34.6998 83.8992C33.8998 84.4992 32.5998 84.3992 32.4998 86.0992H9.59979C8.09979 84.8992 6.1998 82.8992 5.2998 79.9992C5.0998 79.5992 4.99984 79.0992 4.89984 78.6992C4.89984 76.1992 4.89982 72.4992 4.99982 67.9992C4.99982 66.7992 5.19984 62.0992 5.39984 58.6992C6.39984 43.0992 11.0998 30.2992 12.7998 26.2992C13.5998 24.3992 14.3998 22.3992 15.4998 19.9992C11.9998 20.3992 14.1998 20.1992 10.8998 20.4992C10.7998 20.4992 10.5998 20.5992 10.4998 20.6992C9.19982 21.9992 7.69979 23.1992 6.59979 24.6992C5.99979 25.4992 5.89979 26.8992 5.59979 28.0992C5.19979 30.3992 4.89984 32.5992 4.39984 34.8992C4.19984 35.7992 4.1998 37.2992 2.7998 37.1992C1.3998 36.9992 0.299805 35.5992 0.299805 33.9992C0.399805 31.9992 0.499805 29.8992 0.799805 27.8992C2.0998 20.2992 5.29984 16.9992 12.3998 16.3992C15.5998 16.0992 13.1998 16.1992 16.3998 15.9992C17.3998 15.8992 17.9998 15.4992 18.5998 14.5992C19.5998 13.1992 21.0998 12.1992 21.7998 10.5992C22.6998 8.29923 24.4998 8.99923 25.8998 8.59923C27.7998 7.99923 29.5998 7.29922 31.4998 6.89922C34.5998 6.39922 37.7998 5.79922 40.8998 5.69922C48.9998 5.39922 107.1 5.39922 115.2 5.29922H116.4C117.3 1.59922 118.9 0.199219 122.2 0.199219C142.9 0.299219 188.6 0.399225 209.3 0.299225C212.4 0.299225 213.6 1.59922 215 5.49922C217.9 5.49922 265.9 5.49922 268.9 5.49922C287.3 5.69922 284.8 5.99922 303.2 6.19922C306.4 6.19922 309.6 7.29922 311.8 9.29922C314.5 11.6992 316.9 14.9992 317.2 19.2992C317.4 21.8992 318.3 24.4992 318.5 27.1992C318.8 31.5992 319 35.9992 319 40.3992C319.1 49.9992 319 59.4992 319.1 69.0992C319.3 71.8992 319.7 74.6992 319.8 77.5992Z" fill="url(#paint0_linear)"/>
<path d="M326.2 92.1008H324.7V90.8008C325.2 91.3008 325.7 91.7008 326.2 92.1008Z" fill="url(#paint1_linear)"/>
<path opacity="0.2" d="M49.1997 47.2992H311.4V19.7992C311.4 15.2992 307.8 11.6992 303.3 11.6992H49.1997V47.2992Z" fill="#0f84fa"/>
<path opacity="0.2" d="M46.6 47.3008V11.8008H28.3C27.3 12.0008 25.8 12.5008 24.2 13.6008C22 15.1008 20.9 16.9008 20.3 17.9008C17.9 27.4008 15.4 36.8008 13 46.3008C24.1 46.7008 35.4 47.0008 46.6 47.3008Z" fill="#0f84fa"/>
<defs>
<linearGradient id="paint0_linear" x1="0.125605" y1="43.0477" x2="319.773" y2="43.0477" gradientUnits="userSpaceOnUse">
<stop stop-color="#26B3FA"/>
<stop offset="1" stop-color="#26B3FA"/>
</linearGradient>
<linearGradient id="paint1_linear" x1="324.767" y1="91.4893" x2="326.227" y2="91.4893" gradientUnits="userSpaceOnUse">
<stop stop-color="#26B3FA"/>
<stop offset="1" stop-color="#c2e0ff"/>
</linearGradient>
</defs>
</svg>
