<svg width="497" height="114" viewBox="0 0 497 114" fill="none" xmlns="http://www.w3.org/2000/svg">
<path d="M455.5 4C443 17.8 430.5 31.6 418 45.3C434.5 46.4 451 50.7 467.4 51.8C471.4 35.6 475.3 16.3 479.3 0C471.4 1.4 463.5 2.7 455.5 4Z" fill="url(#paint0_linear)"/>
<path opacity="0.1" d="M455.5 4C443 17.8 430.5 31.6 418 45.3C434.5 46.4 451 50.7 467.4 51.8C471.4 35.6 475.3 16.3 479.3 0C471.4 1.4 463.5 2.7 455.5 4Z" fill="#0f84fa"/>
<path d="M482.3 59.8998L481 60.5998L445.2 80.0998L422.7 92.3999C416.3 97.2999 398.9 99.7998 390.8 99.7998L35.7999 96.5998C23.6999 96.4998 0.699886 86.3998 0.799886 74.2998C0.799886 74.1998 0.799886 74.0998 0.799886 74.0998C0.799886 73.5998 0.799837 72.9999 0.999837 72.4999C0.999837 72.2999 0.999934 72.0999 1.09993 71.8999C1.19993 71.3999 1.29984 70.8999 1.49984 70.3999C1.69984 69.7999 1.89991 69.1998 2.19991 68.5998C2.39991 68.1998 2.59986 67.7998 2.89986 67.2998C3.09986 66.9998 3.19986 66.6999 3.39986 66.4999C3.89986 65.6999 4.59991 64.7998 5.19991 64.0998C5.79991 63.3998 6.39993 62.6999 7.09993 61.9999C7.39993 61.6999 7.69984 61.3998 7.99984 61.0998C8.09984 60.9998 8.19991 60.9998 8.19991 60.8998C8.79991 60.2998 9.49993 59.7999 10.0999 59.2999C11.3999 58.2999 12.7999 57.1998 14.2999 56.1998C15.0999 55.6998 15.7999 55.1998 16.5999 54.6998C19.6999 52.7998 23.1999 51.0998 26.7999 49.3998C27.7999 48.9998 28.7999 48.4998 29.7999 48.0998C30.7999 47.6998 31.7999 47.2998 32.7999 46.8998C35.7999 45.6998 38.8999 44.5998 42.0999 43.6998C43.0999 43.3998 44.0999 43.0999 45.1999 42.7999C48.5999 41.7999 51.9999 40.9999 55.1999 40.2999C56.8999 39.8999 58.4998 39.6998 59.9998 39.3998C64.4998 38.6998 68.6998 38.1999 71.9998 38.2999L403.9 41.1998L479.9 52.4999C483.9 52.5999 485.4 57.4998 482.3 59.8998Z" fill="url(#paint1_linear)"/>
<path opacity="0.1" d="M482.3 59.8998L481 60.5998L445.2 80.0998L422.7 92.3999C416.3 97.2999 398.9 99.7998 390.8 99.7998L35.7999 96.5998C23.6999 96.4998 0.699886 86.3998 0.799886 74.2998C0.799886 74.1998 0.799886 74.0998 0.799886 74.0998C0.799886 73.5998 0.799837 72.9999 0.999837 72.4999C0.999837 72.2999 0.999934 72.0999 1.09993 71.8999C1.19993 71.3999 1.29984 70.8999 1.49984 70.3999C1.69984 69.7999 1.89991 69.1998 2.19991 68.5998C2.39991 68.1998 2.59986 67.7998 2.89986 67.2998C3.09986 66.9998 3.19986 66.6999 3.39986 66.4999C3.89986 65.6999 4.59991 64.7998 5.19991 64.0998C5.79991 63.3998 6.39993 62.6999 7.09993 61.9999C7.39993 61.6999 7.69984 61.3998 7.99984 61.0998C8.09984 60.9998 8.19991 60.9998 8.19991 60.8998C8.79991 60.2998 9.49993 59.7999 10.0999 59.2999C11.3999 58.2999 12.7999 57.1998 14.2999 56.1998C15.0999 55.6998 15.7999 55.1998 16.5999 54.6998C19.6999 52.7998 23.1999 51.0998 26.7999 49.3998C27.7999 48.9998 28.7999 48.4998 29.7999 48.0998C30.7999 47.6998 31.7999 47.2998 32.7999 46.8998C35.7999 45.6998 38.8999 44.5998 42.0999 43.6998C43.0999 43.3998 44.0999 43.0999 45.1999 42.7999C48.5999 41.7999 51.9999 40.9999 55.1999 40.2999C56.8999 39.8999 58.4998 39.6998 59.9998 39.3998C64.4998 38.6998 68.6998 38.1999 71.9998 38.2999L403.9 41.1998L479.9 52.4999C483.9 52.5999 485.4 57.4998 482.3 59.8998Z" fill="#0f84fa"/>
<path d="M480.2 52.2999C484.1 52.5999 485.2 57.6998 481.8 59.5998L429.5 83.2998C423.1 88.1998 396.2 90.6998 388.1 90.5998L35.7 87.4999C27.3 87.3999 7.9999 81.7998 0.899902 74.0998C0.899902 73.5998 0.899976 72.9999 1.09998 72.4999C1.09998 72.2999 1.09995 72.0999 1.19995 71.8999C1.29995 71.3999 1.39998 70.8999 1.59998 70.3999C1.79998 69.7999 1.99993 69.1998 2.29993 68.5998C2.49993 68.1998 2.69988 67.7998 2.99988 67.2998C3.19988 66.9998 3.29988 66.6999 3.49988 66.4999C3.99988 65.6999 4.69993 64.7998 5.29993 64.0998C5.89993 63.3998 6.49995 62.6999 7.19995 61.9999C7.49995 61.6999 7.79998 61.3998 8.09998 61.0998C8.19998 60.9998 8.29993 60.9998 8.29993 60.8998C8.89993 60.2998 9.59995 59.7999 10.2 59.2999C11.5 58.2999 12.8999 57.1998 14.3999 56.1998C15.1999 55.6998 15.9 55.1998 16.7 54.6998C19.8 52.7998 23.2999 51.0998 26.8999 49.3998C27.8999 48.9998 28.8999 48.4998 29.8999 48.0998C30.8999 47.6998 31.8999 47.2998 32.8999 46.8998C35.8999 45.6998 39 44.6998 42.2 43.6998C43.2 43.3998 44.1999 43.0999 45.2999 42.7999C48.6999 41.7999 52.0999 40.9999 55.2999 40.2999C56.9999 39.8999 58.6 39.6998 60.1 39.3998C64.6 38.6998 68.8 38.1999 72.1 38.2999L403.9 41.1998C404 41.1998 404 41.1998 404.1 41.1998L480.2 52.2999Z" fill="url(#paint2_linear)"/>
<path d="M40.1 52.3999L32.9999 63.4C32.5999 63.9 31.9999 64.2999 31.3999 64.2999L5.3999 63.9999C10.0999 58.3999 18 53.4999 27.1 49.3999L38.6 49.4999C40 49.3999 40.9 51.0999 40.1 52.3999Z" fill="url(#paint3_linear)"/>
<path d="M59.1999 52.2L54.8998 63.2C54.5998 63.9 53.8999 64.4001 53.0999 64.4001L39.9998 64.3C38.5998 64.3 37.6998 62.7001 38.3998 61.5001L44.6999 50.5001C44.9999 49.9001 45.6998 49.5 46.3998 49.6L57.4998 49.7C58.7998 49.6 59.6999 51 59.1999 52.2Z" fill="url(#paint4_linear)"/>
<path d="M123.4 72.3H128.9C130.8 72.3 132.3 70.8001 132.3 68.9001V53.7C132.3 51.8 130.8 50.3 128.9 50.3H123.4C121.5 50.3 120 51.8 120 53.7V68.9001C120 70.8001 121.6 72.3 123.4 72.3Z" fill="url(#paint5_linear)"/>
<path d="M139.9 62.2H140.5C142.1 62.2 143.5 60.9 143.5 59.2V53.5C143.5 51.9 142.2 50.5 140.5 50.5H139.9C138.3 50.5 136.9 51.8 136.9 53.5V59.2C137 60.9 138.3 62.2 139.9 62.2Z" fill="url(#paint6_linear)"/>
<path d="M151.2 62.2999H151.8C153.4 62.2999 154.8 61 154.8 59.3V53.6C154.8 52 153.5 50.6 151.8 50.6H151.2C149.6 50.6 148.2 51.9 148.2 53.6V59.3C148.2 61 149.6 62.2999 151.2 62.2999Z" fill="url(#paint7_linear)"/>
<path d="M162.5 62.4H163.1C164.7 62.4 166.1 61.1 166.1 59.4V53.7C166.1 52.1 164.8 50.7 163.1 50.7H162.5C160.9 50.7 159.5 52 159.5 53.7V59.4C159.5 61.1 160.8 62.4 162.5 62.4Z" fill="url(#paint8_linear)"/>
<path d="M173.7 62.5001H174.3C175.9 62.5001 177.3 61.2001 177.3 59.5001V53.8C177.3 52.2 176 50.8 174.3 50.8H173.7C172.1 50.8 170.7 52.1 170.7 53.8V59.5001C170.8 61.2001 172.1 62.5001 173.7 62.5001Z" fill="url(#paint9_linear)"/>
<path d="M185 62.5999H185.6C187.2 62.5999 188.6 61.2999 188.6 59.5999V53.8999C188.6 52.2999 187.3 50.8999 185.6 50.8999H185C183.4 50.8999 182 52.1999 182 53.8999V59.5999C182 61.2999 183.3 62.5999 185 62.5999Z" fill="url(#paint10_linear)"/>
<path d="M196.3 62.7H196.9C198.5 62.7 199.9 61.4 199.9 59.7V54C199.9 52.4 198.6 51 196.9 51H196.3C194.7 51 193.3 52.3 193.3 54V59.7C193.3 61.4 194.6 62.7 196.3 62.7Z" fill="url(#paint11_linear)"/>
<path d="M207.5 62.7999H208.1C209.7 62.7999 211.1 61.5 211.1 59.8V54.1C211.1 52.5 209.8 51.1 208.1 51.1H207.5C205.9 51.1 204.5 52.4 204.5 54.1V59.8C204.5 61.5 205.9 62.7999 207.5 62.7999Z" fill="url(#paint12_linear)"/>
<path d="M218.8 62.9H219.4C221 62.9 222.4 61.6 222.4 59.9V54.2C222.4 52.6 221.1 51.2 219.4 51.2H218.8C217.2 51.2 215.8 52.5 215.8 54.2V59.9C215.8 61.6 217.1 62.9 218.8 62.9Z" fill="url(#paint13_linear)"/>
<path d="M230 63.0999H230.6C232.2 63.0999 233.6 61.7999 233.6 60.0999V54.3999C233.6 52.7999 232.3 51.3999 230.6 51.3999H230C228.4 51.3999 227 52.6999 227 54.3999V60.0999C227.1 61.6999 228.4 63.0999 230 63.0999Z" fill="url(#paint14_linear)"/>
<path d="M241.3 63.2H241.9C243.5 63.2 244.9 61.9 244.9 60.2V54.5C244.9 52.9 243.6 51.5 241.9 51.5H241.3C239.7 51.5 238.3 52.8 238.3 54.5V60.2C238.3 61.8 239.7 63.2 241.3 63.2Z" fill="url(#paint15_linear)"/>
<path d="M252.6 63.2999H253.2C254.8 63.2999 256.2 62 256.2 60.3V54.6C256.2 53 254.9 51.6 253.2 51.6H252.6C251 51.6 249.6 52.9 249.6 54.6V60.3C249.6 61.9 250.9 63.2999 252.6 63.2999Z" fill="url(#paint16_linear)"/>
<path d="M263.8 63.4H264.4C266 63.4 267.4 62.1 267.4 60.4V54.7C267.4 53.1 266.1 51.7 264.4 51.7H263.8C262.2 51.7 260.8 53 260.8 54.7V60.4C260.8 62.1 262.2 63.4 263.8 63.4Z" fill="url(#paint17_linear)"/>
<path d="M275.1 63.5001H275.7C277.3 63.5001 278.7 62.2001 278.7 60.5001V54.8C278.7 53.2 277.4 51.8 275.7 51.8H275.1C273.5 51.8 272.1 53.1 272.1 54.8V60.5001C272.1 62.2001 273.4 63.5001 275.1 63.5001Z" fill="url(#paint18_linear)"/>
<path d="M360.6 64.0001H361.2C362.8 64.0001 364.2 62.7001 364.2 61.0001V55.3C364.2 53.7 362.9 52.3 361.2 52.3H360.6C359 52.3 357.6 53.6 357.6 55.3V61.0001C357.6 62.7001 359 64.0001 360.6 64.0001Z" fill="url(#paint19_linear)"/>
<path d="M371.9 64.0999H372.5C374.1 64.0999 375.5 62.7999 375.5 61.0999V55.3999C375.5 53.7999 374.2 52.3999 372.5 52.3999H371.9C370.3 52.3999 368.9 53.6999 368.9 55.3999V61.0999C368.9 62.7999 370.2 64.1999 371.9 64.0999Z" fill="url(#paint20_linear)"/>
<path d="M383.1 64.2999H383.7C385.3 64.2999 386.7 63 386.7 61.3V55.6C386.7 54 385.4 52.6 383.7 52.6H383.1C381.5 52.6 380.1 53.9 380.1 55.6V61.3C380.2 62.9 381.5 64.2999 383.1 64.2999Z" fill="url(#paint21_linear)"/>
<path d="M394.4 64.4H395C396.6 64.4 398 63.1 398 61.4V55.7C398 54.1 396.7 52.7 395 52.7H394.4C392.8 52.7 391.4 54 391.4 55.7V61.4C391.4 63 392.8 64.4 394.4 64.4Z" fill="url(#paint22_linear)"/>
<path d="M370.4 85.9L154.1 84.1C151.4 84.1 149.2 81.9 149.3 79.2L375.4 81.1C375.3 83.7 373.1 85.9 370.4 85.9Z" fill="url(#paint23_linear)"/>
<path opacity="0.1" d="M154.2 74.2999L370.5 76.1C373.2 76.1 375.4 78.3 375.3 81L149.2 79.1C149.2 76.4 151.4 74.1999 154.2 74.2999Z" fill="white"/>
<path d="M494.5 62.1L426.3 61.4C425.1 61.4 424.1 60.4 424.1 59.1V58.6L496.7 59.3V59.8C496.8 61.1 495.8 62.1 494.5 62.1Z" fill="url(#paint24_linear)"/>
<path d="M426.4 56L494.6 56.7C495.8 56.7 496.8 57.7 496.8 59V59.5L424.2 58.8V58.3C424.2 56.9 425.2 55.9 426.4 56Z" fill="url(#paint25_linear)"/>
<path d="M375.3 81L375.5 63.2999L355.9 63.1L345.3 80.7L375.3 81Z" fill="url(#paint26_linear)"/>
<path opacity="0.2" d="M375.3 81L375.5 63.2999L355.9 63.1L345.3 80.7L375.3 81Z" fill="#0f84fa"/>
<path d="M378.6 99.7L162.8 97.7999L154 82.7999L371.9 84.7L378.6 99.7Z" fill="url(#paint27_linear)"/>
<path d="M481 60.6L445.2 80.1L424.8 60.1L481 60.6Z" fill="url(#paint28_linear)"/>
<path d="M178 84.9C172.8 83.6 166.7 82.4 159.8 81.7C153.2 81 147.1 80.9 141.8 81C141.6 88.4 141.4 95.8 141.2 103.1C146.4 103.7 152.5 104 159.4 103.6C166.3 103.2 172.4 102.3 177.5 101.2C177.7 95.7 177.8 90.3 178 84.9Z" fill="url(#paint29_linear)"/>
<path d="M77.8999 101.1L63.8999 100.9L63.9999 96.2999L77.8999 96.5V101.1Z" fill="url(#paint30_linear)"/>
<path d="M277.7 103.5L263.7 103.3V98.7999L277.7 98.9V103.5Z" fill="url(#paint31_linear)"/>
<path d="M71.9999 111.6H69.4999L69.6 100.6H72.2L71.9999 111.6Z" fill="url(#paint32_linear)"/>
<path d="M271.8 114H269.3L269.4 103H272L271.8 114Z" fill="url(#paint33_linear)"/>
<path opacity="0.2" d="M40.1 52.3999L32.9999 63.4C32.5999 63.9 31.9999 64.2999 31.3999 64.2999L5.3999 63.9999C10.0999 58.3999 18 53.4999 27.1 49.3999L38.6 49.4999C40 49.3999 40.9 51.0999 40.1 52.3999Z" fill="#0f84fa"/>
<path opacity="0.2" d="M59.1999 52.2L54.8998 63.2C54.5998 63.9 53.8999 64.4001 53.0999 64.4001L39.9998 64.3C38.5998 64.3 37.6998 62.7001 38.3998 61.5001L44.6999 50.5001C44.9999 49.9001 45.6998 49.5 46.3998 49.6L57.4998 49.7C58.7998 49.6 59.6999 51 59.1999 52.2Z" fill="#0f84fa"/>
<path opacity="0.2" d="M123.4 72.3H128.9C130.8 72.3 132.3 70.8001 132.3 68.9001V53.7C132.3 51.8 130.8 50.3 128.9 50.3H123.4C121.5 50.3 120 51.8 120 53.7V68.9001C120 70.8001 121.6 72.3 123.4 72.3Z" fill="#0f84fa"/>
<path opacity="0.2" d="M139.9 62.2H140.5C142.1 62.2 143.5 60.9 143.5 59.2V53.5C143.5 51.9 142.2 50.5 140.5 50.5H139.9C138.3 50.5 136.9 51.8 136.9 53.5V59.2C137 60.9 138.3 62.2 139.9 62.2Z" fill="#0f84fa"/>
<path opacity="0.2" d="M151.2 62.2999H151.8C153.4 62.2999 154.8 61 154.8 59.3V53.6C154.8 52 153.5 50.6 151.8 50.6H151.2C149.6 50.6 148.2 51.9 148.2 53.6V59.3C148.2 61 149.6 62.2999 151.2 62.2999Z" fill="#0f84fa"/>
<path opacity="0.2" d="M162.5 62.4H163.1C164.7 62.4 166.1 61.1 166.1 59.4V53.7C166.1 52.1 164.8 50.7 163.1 50.7H162.5C160.9 50.7 159.5 52 159.5 53.7V59.4C159.5 61.1 160.8 62.4 162.5 62.4Z" fill="#0f84fa"/>
<path opacity="0.2" d="M173.7 62.5001H174.3C175.9 62.5001 177.3 61.2001 177.3 59.5001V53.8C177.3 52.2 176 50.8 174.3 50.8H173.7C172.1 50.8 170.7 52.1 170.7 53.8V59.5001C170.8 61.2001 172.1 62.5001 173.7 62.5001Z" fill="#0f84fa"/>
<path opacity="0.2" d="M185 62.5999H185.6C187.2 62.5999 188.6 61.2999 188.6 59.5999V53.8999C188.6 52.2999 187.3 50.8999 185.6 50.8999H185C183.4 50.8999 182 52.1999 182 53.8999V59.5999C182 61.2999 183.3 62.5999 185 62.5999Z" fill="#0f84fa"/>
<path opacity="0.2" d="M196.3 62.7H196.9C198.5 62.7 199.9 61.4 199.9 59.7V54C199.9 52.4 198.6 51 196.9 51H196.3C194.7 51 193.3 52.3 193.3 54V59.7C193.3 61.4 194.6 62.7 196.3 62.7Z" fill="#0f84fa"/>
<path opacity="0.2" d="M207.5 62.7999H208.1C209.7 62.7999 211.1 61.5 211.1 59.8V54.1C211.1 52.5 209.8 51.1 208.1 51.1H207.5C205.9 51.1 204.5 52.4 204.5 54.1V59.8C204.5 61.5 205.9 62.7999 207.5 62.7999Z" fill="#0f84fa"/>
<path opacity="0.2" d="M218.8 62.9H219.4C221 62.9 222.4 61.6 222.4 59.9V54.2C222.4 52.6 221.1 51.2 219.4 51.2H218.8C217.2 51.2 215.8 52.5 215.8 54.2V59.9C215.8 61.6 217.1 62.9 218.8 62.9Z" fill="#0f84fa"/>
<path opacity="0.2" d="M230 63.0999H230.6C232.2 63.0999 233.6 61.7999 233.6 60.0999V54.3999C233.6 52.7999 232.3 51.3999 230.6 51.3999H230C228.4 51.3999 227 52.6999 227 54.3999V60.0999C227.1 61.6999 228.4 63.0999 230 63.0999Z" fill="#0f84fa"/>
<path opacity="0.2" d="M241.3 63.2H241.9C243.5 63.2 244.9 61.9 244.9 60.2V54.5C244.9 52.9 243.6 51.5 241.9 51.5H241.3C239.7 51.5 238.3 52.8 238.3 54.5V60.2C238.3 61.8 239.7 63.2 241.3 63.2Z" fill="#0f84fa"/>
<path opacity="0.2" d="M252.6 63.2999H253.2C254.8 63.2999 256.2 62 256.2 60.3V54.6C256.2 53 254.9 51.6 253.2 51.6H252.6C251 51.6 249.6 52.9 249.6 54.6V60.3C249.6 61.9 250.9 63.2999 252.6 63.2999Z" fill="#0f84fa"/>
<path opacity="0.2" d="M263.8 63.4H264.4C266 63.4 267.4 62.1 267.4 60.4V54.7C267.4 53.1 266.1 51.7 264.4 51.7H263.8C262.2 51.7 260.8 53 260.8 54.7V60.4C260.8 62.1 262.2 63.4 263.8 63.4Z" fill="#0f84fa"/>
<path opacity="0.2" d="M275.1 63.5001H275.7C277.3 63.5001 278.7 62.2001 278.7 60.5001V54.8C278.7 53.2 277.4 51.8 275.7 51.8H275.1C273.5 51.8 272.1 53.1 272.1 54.8V60.5001C272.1 62.2001 273.4 63.5001 275.1 63.5001Z" fill="#0f84fa"/>
<path opacity="0.2" d="M286.4 63.0999H287C288.6 63.0999 290 61.7999 290 60.0999V54.3999C290 52.7999 288.7 51.3999 287 51.3999H286.4C284.8 51.3999 283.4 52.6999 283.4 54.3999V60.0999C283.5 61.6999 284.8 63.0999 286.4 63.0999Z" fill="#0f84fa"/>
<path opacity="0.2" d="M297.7 63.2H298.3C299.9 63.2 301.3 61.9 301.3 60.2V54.5C301.3 52.9 300 51.5 298.3 51.5H297.7C296.1 51.5 294.7 52.8 294.7 54.5V60.2C294.7 61.8 296.1 63.2 297.7 63.2Z" fill="#0f84fa"/>
<path opacity="0.2" d="M309 63.2999H309.6C311.2 63.2999 312.6 62 312.6 60.3V54.6C312.6 53 311.3 51.6 309.6 51.6H309C307.4 51.6 306 52.9 306 54.6V60.3C306 61.9 307.3 63.2999 309 63.2999Z" fill="#0f84fa"/>
<path opacity="0.2" d="M320.2 63.4H320.8C322.4 63.4 323.8 62.1 323.8 60.4V54.7C323.8 53.1 322.5 51.7 320.8 51.7H320.2C318.6 51.7 317.2 53 317.2 54.7V60.4C317.3 62.1 318.6 63.4 320.2 63.4Z" fill="#0f84fa"/>
<path opacity="0.2" d="M331.5 63.5001H332.1C333.7 63.5001 335.1 62.2001 335.1 60.5001V54.8C335.1 53.2 333.8 51.8 332.1 51.8H331.5C329.9 51.8 328.5 53.1 328.5 54.8V60.5001C328.5 62.2001 329.8 63.5001 331.5 63.5001Z" fill="#0f84fa"/>
<path opacity="0.2" d="M364.3 64.0001H364.9C366.5 64.0001 367.9 62.7001 367.9 61.0001V55.3C367.9 53.7 366.6 52.3 364.9 52.3H364.3C362.7 52.3 361.3 53.6 361.3 55.3V61.0001C361.3 62.7001 362.6 64.0001 364.3 64.0001Z" fill="#0f84fa"/>
<path opacity="0.2" d="M375.5 64.0999H376.1C377.7 64.0999 379.1 62.7999 379.1 61.0999V55.3999C379.1 53.7999 377.8 52.3999 376.1 52.3999H375.5C373.9 52.3999 372.5 53.6999 372.5 55.3999V61.0999C372.6 62.7999 373.9 64.1999 375.5 64.0999Z" fill="#0f84fa"/>
<path opacity="0.2" d="M343 64.0001H343.6C345.2 64.0001 346.6 62.7001 346.6 61.0001V55.3C346.6 53.7 345.3 52.3 343.6 52.3H343C341.4 52.3 340 53.6 340 55.3V61.0001C340 62.7001 341.4 64.0001 343 64.0001Z" fill="#0f84fa"/>
<path opacity="0.2" d="M354.3 64.0999H354.9C356.5 64.0999 357.9 62.7999 357.9 61.0999V55.3999C357.9 53.7999 356.6 52.3999 354.9 52.3999H354.3C352.7 52.3999 351.3 53.6999 351.3 55.3999V61.0999C351.3 62.7999 352.6 64.1999 354.3 64.0999Z" fill="#0f84fa"/>
<path opacity="0.2" d="M386.8 64.2999H387.4C389 64.2999 390.4 63 390.4 61.3V55.6C390.4 54 389.1 52.6 387.4 52.6H386.8C385.2 52.6 383.8 53.9 383.8 55.6V61.3C383.8 62.9 385.1 64.2999 386.8 64.2999Z" fill="#0f84fa"/>
<path opacity="0.2" d="M398 64.4H398.6C400.2 64.4 401.6 63.1 401.6 61.4V55.7C401.6 54.1 400.3 52.7 398.6 52.7H398C396.4 52.7 395 54 395 55.7V61.4C395.1 63 396.4 64.4 398 64.4Z" fill="#0f84fa"/>
<path opacity="0.3" d="M177.6 98C177.7 93.6 177.8 89.3 177.9 84.9C175.2 84.2 172.3 83.6 169.1 83L371.8 84.7L378.5 99.7L177.6 98Z" fill="#0f84fa"/>
<path opacity="0.1" d="M481 60.6L445.2 80.1L424.8 60.1L481 60.6Z" fill="#0f84fa"/>
<path opacity="0.1" d="M405.3 50.3H132.3V63.5001H405.3V50.3Z" fill="#0f84fa"/>
<path opacity="0.1" d="M178 84.9001C177.9 89.3001 177.8 93.6 177.6 98C177.6 99.1 177.6 100.1 177.5 101.2C172.4 102.3 166.3 103.3 159.4 103.6C152.5 104 146.3 103.7 141.2 103.1C141.3 100 141.4 96.9 141.4 93.8C141.5 89.5 141.6 85.2 141.7 81C147 80.8 153 81 159.7 81.7C163 82.1 166.1 82.5 169.1 83C172.2 83.5 175 84.2 177.6 84.8C177.8 84.8 177.9 84.8001 178 84.9001Z" fill="#0f84fa"/>
<path opacity="0.3" d="M178 84.9001C177.9 89.3001 177.8 93.6 177.6 98C177.6 99.1 177.6 100.1 177.5 101.2C172.4 102.3 166.3 103.3 159.4 103.6C152.5 104 146.3 103.7 141.2 103.1C141.3 100 141.4 96.9 141.4 93.8C141.5 89.5 141.6 85.2 141.7 81C147 80.8 153 81 159.7 81.7C163 82.1 166.1 82.5 169.1 83C172.2 83.5 175 84.2 177.6 84.8C177.8 84.8 177.9 84.8001 178 84.9001Z" fill="#0f84fa"/>
<path d="M177.7 84.8C177.7 86.1 177.6 87.4 177.6 88.6C177.6 89.7 177.6 90.7 177.5 91.8C172.4 92.9 166.3 93.9 159.4 94.2C152.6 94.6 146.5 94.3 141.4 93.7C141.5 89.4 141.6 85.1001 141.7 80.9001C147 80.7001 153 80.9 159.7 81.6C163 82 166.1 82.4001 169.1 82.9001C172.3 83.5001 175.1 84.2 177.7 84.8Z" fill="url(#paint34_linear)"/>
<defs>
<linearGradient id="paint0_linear" x1="417.78" y1="26.6615" x2="479.68" y2="25.8413" gradientUnits="userSpaceOnUse">
<stop stop-color="#26B3FA"/>
<stop offset="1" stop-color="#26B3FA"/>
</linearGradient>
<linearGradient id="paint1_linear" x1="0.996188" y1="66.724" x2="483.94" y2="71.4276" gradientUnits="userSpaceOnUse">
<stop stop-color="#26B3FA"/>
<stop offset="1" stop-color="#26B3FA"/>
</linearGradient>
<linearGradient id="paint2_linear" x1="0.967911" y1="61.5553" x2="483.676" y2="67.4071" gradientUnits="userSpaceOnUse">
<stop stop-color="#26B3FA"/>
<stop offset="1" stop-color="#26B3FA"/>
</linearGradient>
<linearGradient id="paint3_linear" x1="5.35393" y1="56.4564" x2="40.2501" y2="56.8794" gradientUnits="userSpaceOnUse">
<stop stop-color="#26B3FA"/>
<stop offset="1" stop-color="#26B3FA"/>
</linearGradient>
<linearGradient id="paint4_linear" x1="38.1576" y1="56.7903" x2="59.1902" y2="57.0453" gradientUnits="userSpaceOnUse">
<stop stop-color="#26B3FA"/>
<stop offset="1" stop-color="#26B3FA"/>
</linearGradient>
<linearGradient id="paint5_linear" x1="119.838" y1="61.2074" x2="132.336" y2="61.3589" gradientUnits="userSpaceOnUse">
<stop stop-color="#26B3FA"/>
<stop offset="1" stop-color="#26B3FA"/>
</linearGradient>
<linearGradient id="paint6_linear" x1="136.865" y1="56.2663" x2="143.473" y2="56.3464" gradientUnits="userSpaceOnUse">
<stop stop-color="#26B3FA"/>
<stop offset="1" stop-color="#26B3FA"/>
</linearGradient>
<linearGradient id="paint7_linear" x1="148.127" y1="56.3759" x2="154.734" y2="56.456" gradientUnits="userSpaceOnUse">
<stop stop-color="#26B3FA"/>
<stop offset="1" stop-color="#26B3FA"/>
</linearGradient>
<linearGradient id="paint8_linear" x1="159.388" y1="56.4856" x2="165.995" y2="56.5657" gradientUnits="userSpaceOnUse">
<stop stop-color="#26B3FA"/>
<stop offset="1" stop-color="#26B3FA"/>
</linearGradient>
<linearGradient id="paint9_linear" x1="170.649" y1="56.5953" x2="177.256" y2="56.6754" gradientUnits="userSpaceOnUse">
<stop stop-color="#26B3FA"/>
<stop offset="1" stop-color="#26B3FA"/>
</linearGradient>
<linearGradient id="paint10_linear" x1="181.911" y1="56.7049" x2="188.518" y2="56.785" gradientUnits="userSpaceOnUse">
<stop stop-color="#26B3FA"/>
<stop offset="1" stop-color="#26B3FA"/>
</linearGradient>
<linearGradient id="paint11_linear" x1="193.172" y1="56.8147" x2="199.779" y2="56.8948" gradientUnits="userSpaceOnUse">
<stop stop-color="#26B3FA"/>
<stop offset="1" stop-color="#26B3FA"/>
</linearGradient>
<linearGradient id="paint12_linear" x1="204.433" y1="56.9244" x2="211.04" y2="57.0045" gradientUnits="userSpaceOnUse">
<stop stop-color="#26B3FA"/>
<stop offset="1" stop-color="#26B3FA"/>
</linearGradient>
<linearGradient id="paint13_linear" x1="215.694" y1="57.034" x2="222.302" y2="57.1141" gradientUnits="userSpaceOnUse">
<stop stop-color="#26B3FA"/>
<stop offset="1" stop-color="#26B3FA"/>
</linearGradient>
<linearGradient id="paint14_linear" x1="226.956" y1="57.1436" x2="233.563" y2="57.2237" gradientUnits="userSpaceOnUse">
<stop stop-color="#26B3FA"/>
<stop offset="1" stop-color="#26B3FA"/>
</linearGradient>
<linearGradient id="paint15_linear" x1="238.217" y1="57.2533" x2="244.824" y2="57.3334" gradientUnits="userSpaceOnUse">
<stop stop-color="#26B3FA"/>
<stop offset="1" stop-color="#26B3FA"/>
</linearGradient>
<linearGradient id="paint16_linear" x1="249.478" y1="57.3631" x2="256.085" y2="57.4432" gradientUnits="userSpaceOnUse">
<stop stop-color="#26B3FA"/>
<stop offset="1" stop-color="#26B3FA"/>
</linearGradient>
<linearGradient id="paint17_linear" x1="260.74" y1="57.4728" x2="267.347" y2="57.5529" gradientUnits="userSpaceOnUse">
<stop stop-color="#26B3FA"/>
<stop offset="1" stop-color="#26B3FA"/>
</linearGradient>
<linearGradient id="paint18_linear" x1="272.001" y1="57.5826" x2="278.608" y2="57.6627" gradientUnits="userSpaceOnUse">
<stop stop-color="#26B3FA"/>
<stop offset="1" stop-color="#26B3FA"/>
</linearGradient>
<linearGradient id="paint19_linear" x1="357.528" y1="58.131" x2="364.135" y2="58.2111" gradientUnits="userSpaceOnUse">
<stop stop-color="#26B3FA"/>
<stop offset="1" stop-color="#26B3FA"/>
</linearGradient>
<linearGradient id="paint20_linear" x1="368.789" y1="58.2405" x2="375.396" y2="58.3206" gradientUnits="userSpaceOnUse">
<stop stop-color="#26B3FA"/>
<stop offset="1" stop-color="#26B3FA"/>
</linearGradient>
<linearGradient id="paint21_linear" x1="380.05" y1="58.3503" x2="386.657" y2="58.4304" gradientUnits="userSpaceOnUse">
<stop stop-color="#26B3FA"/>
<stop offset="1" stop-color="#26B3FA"/>
</linearGradient>
<linearGradient id="paint22_linear" x1="391.312" y1="58.46" x2="397.919" y2="58.5401" gradientUnits="userSpaceOnUse">
<stop stop-color="#26B3FA"/>
<stop offset="1" stop-color="#26B3FA"/>
</linearGradient>
<linearGradient id="paint23_linear" x1="149.138" y1="81.0976" x2="375.208" y2="83.8382" gradientUnits="userSpaceOnUse">
<stop stop-color="#26B3FA"/>
<stop offset="1" stop-color="#26B3FA"/>
</linearGradient>
<linearGradient id="paint24_linear" x1="424.089" y1="59.939" x2="496.72" y2="60.8195" gradientUnits="userSpaceOnUse">
<stop stop-color="#26B3FA"/>
<stop offset="1" stop-color="#26B3FA"/>
</linearGradient>
<linearGradient id="paint25_linear" x1="424.121" y1="57.193" x2="496.752" y2="58.0735" gradientUnits="userSpaceOnUse">
<stop stop-color="#26B3FA"/>
<stop offset="1" stop-color="#26B3FA"/>
</linearGradient>
<linearGradient id="paint26_linear" x1="345.312" y1="71.8107" x2="375.349" y2="72.1748" gradientUnits="userSpaceOnUse">
<stop stop-color="#26B3FA"/>
<stop offset="1" stop-color="#26B3FA"/>
</linearGradient>
<linearGradient id="paint27_linear" x1="153.849" y1="89.8444" x2="378.627" y2="92.5693" gradientUnits="userSpaceOnUse">
<stop stop-color="#26B3FA"/>
<stop offset="1" stop-color="#26B3FA"/>
</linearGradient>
<linearGradient id="paint28_linear" x1="424.632" y1="69.9017" x2="480.81" y2="70.5828" gradientUnits="userSpaceOnUse">
<stop stop-color="#26B3FA"/>
<stop offset="1" stop-color="#26B3FA"/>
</linearGradient>
<linearGradient id="paint29_linear" x1="141.337" y1="92.1806" x2="177.831" y2="92.623" gradientUnits="userSpaceOnUse">
<stop stop-color="#26B3FA"/>
<stop offset="1" stop-color="#26B3FA"/>
</linearGradient>
<linearGradient id="paint30_linear" x1="63.887" y1="98.5914" x2="77.8613" y2="98.7608" gradientUnits="userSpaceOnUse">
<stop stop-color="#26B3FA"/>
<stop offset="1" stop-color="#26B3FA"/>
</linearGradient>
<linearGradient id="paint31_linear" x1="263.665" y1="101.013" x2="277.64" y2="101.183" gradientUnits="userSpaceOnUse">
<stop stop-color="#26B3FA"/>
<stop offset="1" stop-color="#26B3FA"/>
</linearGradient>
<linearGradient id="paint32_linear" x1="69.5037" y1="106.038" x2="72.066" y2="106.069" gradientUnits="userSpaceOnUse">
<stop stop-color="#26B3FA"/>
<stop offset="1" stop-color="#26B3FA"/>
</linearGradient>
<linearGradient id="paint33_linear" x1="269.282" y1="108.46" x2="271.844" y2="108.491" gradientUnits="userSpaceOnUse">
<stop stop-color="#26B3FA"/>
<stop offset="1" stop-color="#26B3FA"/>
</linearGradient>
<linearGradient id="paint34_linear" x1="141.497" y1="87.6394" x2="177.731" y2="87.6394" gradientUnits="userSpaceOnUse">
<stop stop-color="#26B3FA"/>
<stop offset="1" stop-color="#26B3FA"/>
</linearGradient>
</defs>
</svg>
