<svg width="224" height="74" viewBox="0 0 224 74" fill="none" xmlns="http://www.w3.org/2000/svg">
<g clip-path="url(#clip0)">
<path d="M197.608 34.9747H11.9513V60.7226H197.608V34.9747Z" fill="url(#paint0_linear)"/>
<path d="M220.233 35.0314C219.524 34.0094 219.013 32.9591 219.779 31.6532C220.063 31.1706 219.95 30.3474 219.808 29.7228C219.268 27.4518 218.644 25.1808 217.991 22.9097C217.707 21.8878 217.65 21.0077 218.36 20.1277C218.701 19.7019 218.786 19.3045 218.701 18.9922C218.559 18.538 217.991 18.3109 217.707 18.1973C214.641 17.0902 213.477 17.0902 213.477 17.0902C210.582 17.0902 207.658 16.7496 204.762 16.7496C202.718 16.7496 199.794 16.636 196.189 16.0399C195.65 15.8411 194.826 15.5289 193.833 15.1314C181.342 10.3055 178.163 8.74416 172.542 6.81378C169.873 5.90536 165.956 4.6563 161.045 3.464C159.455 3.15173 157.865 2.83947 156.275 2.5272C156.048 2.10138 155.85 1.67556 155.623 1.24974C155.395 1.13619 154.629 0.795536 153.664 0.994251C152.755 1.19297 152.244 1.73234 152.074 1.93105C136.858 -0.0277146 124.225 0.256165 115.255 0.965863C102.253 1.98783 95.7524 2.49881 88.9109 5.36599C83.9998 7.40993 67.7903 15.5005 61.6869 18.4244C60.2391 19.1058 58.7913 19.8722 57.2867 20.2697C55.6118 20.6955 53.8518 20.7523 52.1201 21.0077C43.8876 22.2284 35.6551 23.4491 27.451 24.7266C26.9116 24.8117 26.3723 24.8969 25.8329 24.9821C20.5811 25.8337 15.3577 26.9408 10.4466 29.0131C6.81296 30.5177 3.74706 32.8171 3.74706 37.3592C3.74706 37.6147 3.57674 37.8986 3.40641 38.1257C-0.3408 43.5762 0.312123 48.9699 0.226959 55.0733C0.198571 56.152 0.283735 57.2308 0.0850195 58.2811C-0.142084 59.4734 0.0850195 60.4954 1.0786 61.0064C1.36248 61.1483 1.64636 61.2902 1.95862 61.4322C4.68387 61.8012 7.55105 62.1419 10.5034 62.369C13.9951 62.6245 17.3449 62.7664 20.5811 62.7948C20.0701 61.1199 19.8146 59.3599 19.8146 57.543C19.8146 47.5221 27.9336 39.4315 37.9261 39.4315C47.9471 39.4315 56.0376 47.5505 56.0376 57.543C56.0376 59.1895 55.8105 60.7793 55.4131 62.3122H158.319C157.894 60.8076 157.666 59.1895 157.666 57.543C157.666 47.8911 165.502 40.0561 175.153 40.0561C184.805 40.0561 192.64 47.8911 192.64 57.543C192.64 58.5934 192.555 59.6437 192.357 60.6373C192.385 60.6373 192.442 60.6373 192.47 60.6373C192.498 60.7793 192.527 60.9496 192.527 61.0915C193.18 61.2335 193.833 61.5741 194.457 61.5173C199.908 60.8928 205.301 59.8708 210.837 60.1831C211.178 60.2115 211.717 60.1263 211.859 59.8992C212.569 58.8205 213.704 58.934 214.755 58.7637C216.004 58.565 217.224 58.3095 218.445 58.054C220.744 57.5998 221.823 56.0952 221.965 53.881C222.107 51.7519 221.823 49.5376 222.391 47.5505C223.697 42.9232 222.902 38.8638 220.233 35.0314Z" fill="url(#paint1_linear)"/>
<path d="M61.176 27.963C61.1476 27.9913 61.1476 27.9913 61.1192 28.0197C61.1192 28.0197 61.1192 27.9913 61.1476 27.9913L61.176 27.963Z" fill="url(#paint2_linear)"/>
<path d="M63.3051 24.8403C63.2483 24.8403 63.1915 24.8403 63.1631 24.8119C63.1915 24.8403 63.2483 24.8403 63.3051 24.8403Z" fill="url(#paint3_linear)"/>
<path d="M64.5258 24.4996C64.4122 24.5564 64.2987 24.6132 64.2135 24.67C64.2987 24.6132 64.4122 24.5564 64.5258 24.4996Z" fill="url(#paint4_linear)"/>
<path d="M174.217 22.0015C174.217 22.0015 174.217 22.0299 174.217 22.0015C174.188 21.9731 174.132 21.9447 174.103 21.8879C174.132 21.9447 174.16 21.9731 174.217 22.0015Z" fill="url(#paint5_linear)"/>
<path d="M174.586 22.257C174.529 22.2286 174.501 22.2002 174.444 22.1718C174.472 22.2002 174.529 22.2286 174.586 22.257Z" fill="url(#paint6_linear)"/>
<path d="M61.176 27.963C61.1476 27.9913 61.1476 27.9913 61.1192 28.0197C61.1192 28.0197 61.1192 27.9913 61.1476 27.9913L61.176 27.963Z" fill="url(#paint7_linear)"/>
<path d="M185.685 60.8362C185.629 61.262 185.544 61.7162 185.458 62.2556C185.43 62.4259 185.402 62.5963 185.373 62.795C185.061 62.5679 184.834 62.4259 184.607 62.2556C184.493 62.1704 184.351 62.0853 184.238 62.0001C184.692 61.4891 185.033 61.1201 185.345 60.751C185.458 60.7794 185.572 60.8078 185.685 60.8362Z" fill="url(#paint8_linear)"/>
<path d="M73.7519 62.2556C72.7015 62.2839 71.6512 62.2839 70.6008 62.3123V62.2556H73.7519Z" fill="url(#paint9_linear)"/>
<path d="M185.487 62.2556C185.458 62.4259 185.43 62.5962 185.402 62.7949C185.089 62.5678 184.862 62.4259 184.635 62.2556H185.487Z" fill="url(#paint10_linear)"/>
<path d="M54.8739 20.6672C52.319 21.3485 51.0699 21.9163 51.0983 22.3989C51.1551 22.9666 53.0854 23.4209 56.8894 23.7047C64.0148 19.3614 71.935 15.0464 80.6501 10.9585C84.3406 9.22688 87.9742 7.63715 91.5227 6.16098C90.9833 5.67839 90.4724 5.19579 89.933 4.7132C84.8515 6.64358 79.5714 8.80106 74.1209 11.2424C67.251 14.3367 60.807 17.5162 54.8739 20.6672Z" fill="url(#paint11_linear)"/>
<path opacity="0.3" d="M64.8665 25.3796C67.7336 23.1654 71.9634 20.0995 77.3004 16.92C83.4889 13.2296 89.7059 9.53915 98.2791 7.12618C103.105 5.76356 110.741 4.23061 120.535 4.88353C123.857 4.79837 128.541 4.79837 134.076 5.16741C134.445 5.1958 142.394 5.73517 146.964 6.61519C151.393 7.46683 160.874 10.1921 171.974 21.3201C136.291 22.6828 100.578 24.0454 64.8665 25.3796Z" fill="#0f84fa"/>
<path opacity="0.3" d="M161.329 3.49249C161.215 3.91831 161.102 4.62801 161.414 5.30932C161.754 6.01902 162.379 6.38806 162.72 6.55839C165.871 8.1765 178.532 12.4347 178.532 12.4347C184.011 14.2799 186.764 15.2167 189.319 16.4942C189.859 16.778 191.988 17.8568 194.826 17.8C195.678 17.7716 197.438 17.7432 197.58 17.2323C197.977 15.6141 183.358 10.6179 177.283 8.54555C170.526 6.21774 164.934 4.54285 161.329 3.49249Z" fill="#0f84fa"/>
<path d="M37.8979 73.7527C46.8658 73.7527 54.1358 66.4827 54.1358 57.5148C54.1358 48.5468 46.8658 41.2769 37.8979 41.2769C28.93 41.2769 21.66 48.5468 21.66 57.5148C21.66 66.4827 28.93 73.7527 37.8979 73.7527Z" fill="url(#paint12_linear)"/>
<path opacity="0.2" d="M37.8979 73.7527C46.8658 73.7527 54.1358 66.4827 54.1358 57.5148C54.1358 48.5468 46.8658 41.2769 37.8979 41.2769C28.93 41.2769 21.66 48.5468 21.66 57.5148C21.66 66.4827 28.93 73.7527 37.8979 73.7527Z" fill="#0f84fa"/>
<path d="M38.0398 69.6932C44.4522 69.6932 49.6505 64.4949 49.6505 58.0825C49.6505 51.6701 44.4522 46.4719 38.0398 46.4719C31.6274 46.4719 26.4292 51.6701 26.4292 58.0825C26.4292 64.4949 31.6274 69.6932 38.0398 69.6932Z" fill="url(#paint13_linear)"/>
<path d="M175.125 73.7527C184.093 73.7527 191.363 66.4827 191.363 57.5148C191.363 48.5468 184.093 41.2769 175.125 41.2769C166.157 41.2769 158.887 48.5468 158.887 57.5148C158.887 66.4827 166.157 73.7527 175.125 73.7527Z" fill="url(#paint14_linear)"/>
<path opacity="0.2" d="M175.125 73.7527C184.093 73.7527 191.363 66.4827 191.363 57.5148C191.363 48.5468 184.093 41.2769 175.125 41.2769C166.157 41.2769 158.887 48.5468 158.887 57.5148C158.887 66.4827 166.157 73.7527 175.125 73.7527Z" fill="#0f84fa"/>
<path opacity="0.2" d="M185.686 60.8362C185.629 61.262 185.544 61.7162 185.458 62.2556C185.43 62.4259 185.402 62.5963 185.373 62.795C185.061 62.5679 184.834 62.4259 184.607 62.2556C184.493 62.1704 184.351 62.0853 184.238 62.0001C184.692 61.4891 185.033 61.1201 185.345 60.751C185.458 60.7794 185.572 60.8078 185.686 60.8362Z" fill="#0f84fa"/>
<path opacity="0.3" d="M54.8739 20.6672C52.319 21.3485 51.0699 21.9163 51.0983 22.3989C51.1551 22.9666 53.0854 23.4209 56.8894 23.7047C64.0148 19.3614 71.935 15.0464 80.6501 10.9585C84.3406 9.22688 87.9742 7.63715 91.5227 6.16098C90.9833 5.67839 90.4724 5.19579 89.933 4.7132C84.8515 6.64358 79.5714 8.80106 74.1209 11.2424C67.251 14.3367 60.807 17.5162 54.8739 20.6672Z" fill="#0f84fa"/>
<path opacity="0.3" d="M60.1824 34.5205C57.7978 34.6625 56.7191 37.5297 58.3656 39.2329C59.6998 40.6239 61.0625 42.384 62.2264 44.5131C63.1348 46.1596 63.7593 47.7493 64.1851 49.2255C65.0084 51.9223 67.4497 53.7676 70.2601 53.7392C94.3047 53.4837 118.349 53.2282 142.422 52.9727C144.466 52.9443 146.368 51.9223 147.532 50.2475C150.428 46.0177 153.863 41.5324 157.894 36.9903C158.632 36.1386 159.398 35.3154 160.136 34.5205C162.209 32.2779 160.505 28.6442 157.439 28.8146C125.02 30.7165 92.6014 32.6185 60.1824 34.5205Z" fill="url(#paint15_linear)"/>
<path opacity="0.3" d="M1.76006 43.6047C2.46975 41.135 3.86076 38.1542 6.69956 36.6497C7.72152 36.1103 9.68029 35.9116 13.541 35.5425C19.0483 35.0032 21.8303 34.7761 22.0574 35.2871C22.5684 36.3942 19.6161 39.2046 16.5502 40.7092C15.3295 41.3053 14.1372 41.7027 9.59512 42.4408C7.60797 42.7531 4.9395 43.1789 1.76006 43.6047Z" fill="#0f84fa"/>
<path opacity="0.2" d="M33.5545 49.0268C34.3494 48.6577 35.854 48.09 37.8411 48.09C39.9134 48.1184 41.4748 48.7713 42.2696 49.1687C42.0425 50.1623 41.6167 51.6101 40.7935 53.1998C39.9702 54.7895 39.0618 56.5496 37.9831 56.4928C37.5005 56.4644 37.0463 56.0954 35.7404 53.654C34.7184 51.752 34.0087 50.1339 33.5545 49.0268Z" fill="#0f84fa"/>
<path opacity="0.2" d="M28.0473 59.5303C27.9337 58.6503 27.8486 57.0605 28.4731 55.1869C29.126 53.2282 30.2332 51.9507 30.8577 51.3262C31.7377 51.8372 32.9584 52.6888 34.2358 53.9663C35.4849 55.2437 36.9043 56.6631 36.5069 57.6567C36.3366 58.1109 35.8256 58.4232 33.1287 58.9341C30.9996 59.3032 29.2396 59.4735 28.0473 59.5303Z" fill="#0f84fa"/>
<path opacity="0.2" d="M36.365 68.0183C35.5133 67.848 33.952 67.4221 32.3623 66.2582C30.6874 65.0376 29.8073 63.5614 29.4099 62.7949C30.1764 62.1136 31.3687 61.2052 32.9584 60.4103C34.5481 59.6155 36.3366 58.707 37.1598 59.3884C37.5289 59.6722 37.6992 60.2684 37.3302 62.9936C37.0463 65.1511 36.6488 66.8828 36.365 68.0183Z" fill="#0f84fa"/>
<path opacity="0.2" d="M47.0104 62.7382C46.5846 63.5047 45.7046 64.8673 44.0865 66.0028C42.4116 67.1951 40.7367 67.5926 39.8851 67.7345C39.4876 66.7977 38.9766 65.3783 38.6928 63.6183C38.4373 61.8582 38.125 59.871 39.0334 59.3033C39.4308 59.0478 40.027 59.0762 42.5251 60.2685C44.4839 61.2053 45.9885 62.1137 47.0104 62.7382Z" fill="#0f84fa"/>
<path opacity="0.2" d="M45.2788 51.014C45.8749 51.6669 46.8969 52.916 47.493 54.7896C48.1176 56.7767 47.9756 58.4516 47.8337 59.3316C46.8117 59.4168 45.3355 59.4736 43.5471 59.1897C41.787 58.9058 39.8283 58.5652 39.5444 57.5432C39.4309 57.089 39.6296 56.5212 41.5316 54.5341C43.0361 52.9444 44.3703 51.7521 45.2788 51.014Z" fill="#0f84fa"/>
<path d="M175.125 69.6932C181.538 69.6932 186.736 64.4949 186.736 58.0825C186.736 51.6701 181.538 46.4719 175.125 46.4719C168.713 46.4719 163.515 51.6701 163.515 58.0825C163.515 64.4949 168.713 69.6932 175.125 69.6932Z" fill="url(#paint16_linear)"/>
<path opacity="0.2" d="M170.64 49.0268C171.435 48.6577 172.939 48.09 174.926 48.09C176.999 48.1184 178.56 48.7713 179.355 49.1687C179.128 50.1623 178.702 51.6101 177.879 53.1998C177.056 54.7895 176.147 56.5496 175.068 56.4928C174.586 56.4644 174.132 56.0954 172.826 53.654C171.775 51.752 171.094 50.1339 170.64 49.0268Z" fill="#0f84fa"/>
<path opacity="0.2" d="M165.133 59.5303C165.019 58.6503 164.934 57.0605 165.558 55.1869C166.211 53.2282 167.319 51.9507 167.943 51.3262C168.823 51.8372 170.044 52.6888 171.321 53.9663C172.57 55.2437 173.99 56.6631 173.592 57.6567C173.422 58.1109 172.911 58.4232 170.214 58.9341C168.085 59.3032 166.325 59.4735 165.133 59.5303Z" fill="#0f84fa"/>
<path opacity="0.2" d="M173.45 68.0183C172.599 67.848 171.037 67.4221 169.448 66.2582C167.773 65.0376 166.893 63.5614 166.495 62.7949C167.262 62.1136 168.454 61.2052 170.044 60.4103C171.633 59.6155 173.422 58.707 174.245 59.3884C174.614 59.6722 174.785 60.2684 174.415 62.9936C174.132 65.1511 173.734 66.8828 173.45 68.0183Z" fill="#0f84fa"/>
<path opacity="0.2" d="M184.096 62.7382C183.67 63.5047 182.79 64.8673 181.172 66.0028C179.497 67.1951 177.822 67.5926 176.97 67.7345C176.573 66.7977 176.062 65.3783 175.778 63.6183C175.523 61.8582 175.21 59.871 176.119 59.3033C176.516 59.0478 177.112 59.0762 179.61 60.2685C181.541 61.2053 183.074 62.1137 184.096 62.7382Z" fill="#0f84fa"/>
<path opacity="0.2" d="M182.336 51.014C182.932 51.6669 183.954 52.916 184.55 54.7896C185.175 56.7767 185.033 58.4516 184.891 59.3316C183.869 59.4168 182.393 59.4736 180.604 59.1897C178.844 58.9058 176.885 58.5652 176.601 57.5432C176.488 57.089 176.687 56.5212 178.589 54.5341C180.121 52.9444 181.427 51.7521 182.336 51.014Z" fill="#0f84fa"/>
</g>
<defs>
<linearGradient id="paint0_linear" x1="11.943" y1="47.8616" x2="197.592" y2="47.8616" gradientUnits="userSpaceOnUse">
<stop stop-color="#26B3FA"/>
<stop offset="1" stop-color="#26B3FA"/>
</linearGradient>
<linearGradient id="paint1_linear" x1="-0.000144361" y1="31.595" x2="223.01" y2="31.595" gradientUnits="userSpaceOnUse">
<stop stop-color="#26B3FA"/>
<stop offset="1" stop-color="#26B3FA"/>
</linearGradient>
<linearGradient id="paint2_linear" x1="61.1355" y1="27.9813" x2="61.1866" y2="27.9813" gradientUnits="userSpaceOnUse">
<stop stop-color="#26B3FA"/>
<stop offset="1" stop-color="#26B3FA"/>
</linearGradient>
<linearGradient id="paint3_linear" x1="63.1453" y1="24.8444" x2="63.2986" y2="24.8444" gradientUnits="userSpaceOnUse">
<stop stop-color="#26B3FA"/>
<stop offset="1" stop-color="#26B3FA"/>
</linearGradient>
<linearGradient id="paint4_linear" x1="64.1986" y1="24.5847" x2="64.5193" y2="24.5847" gradientUnits="userSpaceOnUse">
<stop stop-color="#26B3FA"/>
<stop offset="1" stop-color="#26B3FA"/>
</linearGradient>
<linearGradient id="paint5_linear" x1="174.1" y1="21.9659" x2="174.21" y2="21.9659" gradientUnits="userSpaceOnUse">
<stop stop-color="#26B3FA"/>
<stop offset="1" stop-color="#26B3FA"/>
</linearGradient>
<linearGradient id="paint6_linear" x1="174.432" y1="22.2271" x2="174.579" y2="22.2271" gradientUnits="userSpaceOnUse">
<stop stop-color="#26B3FA"/>
<stop offset="1" stop-color="#26B3FA"/>
</linearGradient>
<linearGradient id="paint7_linear" x1="61.1355" y1="27.9813" x2="61.1866" y2="27.9813" gradientUnits="userSpaceOnUse">
<stop stop-color="#26B3FA"/>
<stop offset="1" stop-color="#26B3FA"/>
</linearGradient>
<linearGradient id="paint8_linear" x1="184.24" y1="61.7729" x2="185.694" y2="61.7729" gradientUnits="userSpaceOnUse">
<stop stop-color="#26B3FA"/>
<stop offset="1" stop-color="#26B3FA"/>
</linearGradient>
<linearGradient id="paint9_linear" x1="70.6" y1="62.2924" x2="73.7426" y2="62.2924" gradientUnits="userSpaceOnUse">
<stop stop-color="#26B3FA"/>
<stop offset="1" stop-color="#26B3FA"/>
</linearGradient>
<linearGradient id="paint10_linear" x1="184.621" y1="62.5336" x2="185.478" y2="62.5336" gradientUnits="userSpaceOnUse">
<stop stop-color="#26B3FA"/>
<stop offset="1" stop-color="#26B3FA"/>
</linearGradient>
<linearGradient id="paint11_linear" x1="51.1011" y1="14.2303" x2="91.5456" y2="14.2303" gradientUnits="userSpaceOnUse">
<stop stop-color="#26B3FA"/>
<stop offset="1" stop-color="#26B3FA"/>
</linearGradient>
<linearGradient id="paint12_linear" x1="21.675" y1="57.5007" x2="54.146" y2="57.5007" gradientUnits="userSpaceOnUse">
<stop stop-color="#26B3FA"/>
<stop offset="1" stop-color="#26B3FA"/>
</linearGradient>
<linearGradient id="paint13_linear" x1="26.4557" y1="58.0685" x2="49.6492" y2="58.0685" gradientUnits="userSpaceOnUse">
<stop stop-color="#26B3FA"/>
<stop offset="1" stop-color="#26B3FA"/>
</linearGradient>
<linearGradient id="paint14_linear" x1="158.895" y1="57.5007" x2="191.366" y2="57.5007" gradientUnits="userSpaceOnUse">
<stop stop-color="#26B3FA"/>
<stop offset="1" stop-color="#26B3FA"/>
</linearGradient>
<linearGradient id="paint15_linear" x1="79.8482" y1="65.956" x2="138.042" y2="7.76223" gradientUnits="userSpaceOnUse">
<stop offset="8.52446e-08" stop-color="#26B3FA"/>
<stop offset="1" stop-color="#0f84fa" stop-opacity="0.2"/>
</linearGradient>
<linearGradient id="paint16_linear" x1="163.534" y1="58.0685" x2="186.727" y2="58.0685" gradientUnits="userSpaceOnUse">
<stop stop-color="#26B3FA"/>
<stop offset="1" stop-color="#26B3FA"/>
</linearGradient>
<clipPath id="clip0">
<rect width="223.016" height="73.2977" fill="white" transform="translate(0 0.426636)"/>
</clipPath>
</defs>
</svg>
