<svg width="629" height="79" viewBox="0 0 629 79" fill="none" xmlns="http://www.w3.org/2000/svg">
<path d="M139.8 5.29999C139.7 28.6 139.7 55.1 139.6 78.4C99.4003 79.3 57.2003 77.1 17.1003 78C6.20034 73.9 0.000366211 63.2 0.000366211 57.5C0.000366211 53.7 0.10039 50.3 6.40039 42.2C6.90039 41.6 7.40037 40.9 8.00037 40.2C9.50037 38.3 11.4003 36.2 13.6003 33.8C24.2003 22.4 33.6003 15.6 41.2003 11.4L41.3003 11.3C43.4003 10.1 45.4003 9.20002 47.2003 8.40002C53.8003 5.60002 58.3004 5.09998 59.9004 5.09998C69.9004 5.29998 118.8 6.19999 139.8 5.29999Z" fill="url(#paint0_linear)"/>
<path d="M139.8 5.29993C139.8 21.6999 139.7 39.6999 139.7 57.0999C139.7 58.2999 139.7 59.5 139.7 60.7C139.7 66.8 139.7 72.6999 139.7 78.4999C99.5003 79.3999 57.3003 77.1999 17.2003 78.0999C8.10032 74.6999 2.30034 66.6 0.600342 60.7C0.300342 59.6 0.100342 58.4999 0.100342 57.5999V57.2C0.100342 53.6 0.500366 50.0999 6.50037 42.2999C7.00037 41.6999 7.50034 40.9999 8.10034 40.2999C9.60034 38.3999 11.5003 36.3 13.7003 33.9C24.3003 22.5 33.7003 15.6999 41.3003 11.4999L41.4004 11.4C43.5004 10.2 45.5003 9.29994 47.3003 8.49994C53.9003 5.69994 58.4004 5.19995 60.0004 5.19995C69.9004 5.29995 118.8 6.19993 139.8 5.29993Z" fill="url(#paint1_linear)"/>
<path d="M614.1 6.59998H83.2003C75.4683 6.59998 69.2003 12.868 69.2003 20.6V64.8C69.2003 72.532 75.4683 78.8 83.2003 78.8H614.1C621.832 78.8 628.1 72.532 628.1 64.8V20.6C628.1 12.868 621.832 6.59998 614.1 6.59998Z" fill="url(#paint2_linear)"/>
<path opacity="0.2" d="M350.8 47.1H41.5004C36.4004 47.1 33.8004 41 37.4004 37.3L57.1004 17.0001C58.2004 15.9001 59.7003 15.3 61.2003 15.3H350.7C353.9 15.3 356.5 17.9 356.5 21.1V41.5001C356.5 44.5001 353.9 47.1 350.8 47.1Z" fill="#0f84fa"/>
<path opacity="0.2" d="M628.1 15.2V47.0999H418.5C415.3 47.0999 412.7 44.4999 412.7 41.2999V20.9999C412.7 17.7999 415.3 15.2 418.5 15.2H628.1Z" fill="#0f84fa"/>
<path d="M194.7 9H72.8003V7.29999C72.8003 3.29999 76.1003 0 80.1003 0H187.4C191.4 0 194.7 3.29999 194.7 7.29999V9Z" fill="url(#paint3_linear)"/>
<path opacity="0.2" d="M49.9004 11.3C42.2004 15.9 36.7003 20.4 33.1003 23.7C24.1003 31.8 18.3004 39.8 5.40039 46.2C4.50039 46.6 3.80039 47 3.40039 47.2C4.70039 45 6.30034 42.7 8.10034 40.3C9.60034 38.4 11.5003 36.3 13.7003 33.9C24.3003 22.5 33.7003 15.7 41.3003 11.5L41.4004 11.4C43.4004 10.3 45.4003 9.4 47.3003 8.5C48.2003 9.5 49.1004 10.4 49.9004 11.3Z" fill="#0f84fa"/>
<path opacity="0.2" d="M49.9004 11.3C42.2004 15.9 36.7003 20.4 33.1003 23.7C24.1003 31.8 18.3004 39.8 5.40039 46.2C4.50039 46.6 3.80039 47 3.40039 47.2C4.70039 45 6.30034 42.7 8.10034 40.3C9.60034 38.4 11.5003 36.3 13.7003 33.9C24.3003 22.5 33.7003 15.7 41.3003 11.5L41.4004 11.4C43.4004 10.3 45.4003 9.4 47.3003 8.5C48.2003 9.5 49.1004 10.4 49.9004 11.3Z" fill="#0f84fa"/>
<path opacity="0.2" d="M362.9 57.1V60.7H0.600342C0.300342 59.6 0.100342 58.5 0.100342 57.6V57.2H362.9V57.1Z" fill="#0f84fa"/>
<path opacity="0.2" d="M628.1 57.1V60.7H407.7C407.4 59.6 407.2 58.5 407.2 57.6V57.2H628.1V57.1Z" fill="#0f84fa"/>
<path opacity="0.2" d="M103.6 42.7H67.9004C66.8004 42.7 65.9004 41.8 65.9004 40.7V21.7C65.9004 20.6 66.8004 19.7 67.9004 19.7H103.6C104.7 19.7 105.6 20.6 105.6 21.7V40.7C105.6 41.8 104.7 42.7 103.6 42.7Z" fill="#0f84fa"/>
<path opacity="0.2" d="M152.6 42.7H116.9C115.8 42.7 114.9 41.8 114.9 40.7V21.7C114.9 20.6 115.8 19.7 116.9 19.7H152.6C153.7 19.7 154.6 20.6 154.6 21.7V40.7C154.6 41.8 153.7 42.7 152.6 42.7Z" fill="#0f84fa"/>
<path opacity="0.2" d="M201.6 42.7H165.9C164.8 42.7 163.9 41.8 163.9 40.7V21.7C163.9 20.6 164.8 19.7 165.9 19.7H201.6C202.7 19.7 203.6 20.6 203.6 21.7V40.7C203.6 41.8 202.7 42.7 201.6 42.7Z" fill="#0f84fa"/>
<path opacity="0.2" d="M250.6 42.7H214.9C213.8 42.7 212.9 41.8 212.9 40.7V21.7C212.9 20.6 213.8 19.7 214.9 19.7H250.6C251.7 19.7 252.6 20.6 252.6 21.7V40.7C252.6 41.8 251.7 42.7 250.6 42.7Z" fill="#0f84fa"/>
<path opacity="0.2" d="M299.6 42.7H263.9C262.8 42.7 261.9 41.8 261.9 40.7V21.7C261.9 20.6 262.8 19.7 263.9 19.7H299.6C300.7 19.7 301.6 20.6 301.6 21.7V40.7C301.6 41.8 300.7 42.7 299.6 42.7Z" fill="#0f84fa"/>
<path opacity="0.2" d="M348.6 42.7H312.9C311.8 42.7 310.9 41.8 310.9 40.7V21.7C310.9 20.6 311.8 19.7 312.9 19.7H348.6C349.7 19.7 350.6 20.6 350.6 21.7V40.7C350.6 41.8 349.7 42.7 348.6 42.7Z" fill="#0f84fa"/>
<path opacity="0.2" d="M455.9 42.7H420.2C419.1 42.7 418.2 41.8 418.2 40.7V21.7C418.2 20.6 419.1 19.7 420.2 19.7H455.9C457 19.7 457.9 20.6 457.9 21.7V40.7C457.9 41.8 457 42.7 455.9 42.7Z" fill="#0f84fa"/>
<path opacity="0.2" d="M504.9 42.7H469.2C468.1 42.7 467.2 41.8 467.2 40.7V21.7C467.2 20.6 468.1 19.7 469.2 19.7H504.9C506 19.7 506.9 20.6 506.9 21.7V40.7C506.9 41.8 506 42.7 504.9 42.7Z" fill="#0f84fa"/>
<path opacity="0.2" d="M553.9 42.7H518.2C517.1 42.7 516.2 41.8 516.2 40.7V21.7C516.2 20.6 517.1 19.7 518.2 19.7H553.9C555 19.7 555.9 20.6 555.9 21.7V40.7C555.9 41.8 555 42.7 553.9 42.7Z" fill="#0f84fa"/>
<path opacity="0.2" d="M602.9 42.7H567.2C566.1 42.7 565.2 41.8 565.2 40.7V21.7C565.2 20.6 566.1 19.7 567.2 19.7H602.9C604 19.7 604.9 20.6 604.9 21.7V40.7C605 41.8 604.1 42.7 602.9 42.7Z" fill="#0f84fa"/>
<path opacity="0.2" d="M402.9 78.8H367.1C364.8 78.8 362.9 76.9 362.9 74.6V19.5001C362.9 17.2001 364.8 15.3 367.1 15.3H402.9C405.2 15.3 407.1 17.2001 407.1 19.5001V74.6C407.1 76.9 405.2 78.8 402.9 78.8Z" fill="#0f84fa"/>
<defs>
<linearGradient id="paint0_linear" x1="0.0378662" y1="41.9641" x2="139.849" y2="41.9641" gradientUnits="userSpaceOnUse">
<stop stop-color="#26B3FA"/>
<stop offset="1" stop-color="#26B3FA"/>
</linearGradient>
<linearGradient id="paint1_linear" x1="0.0378418" y1="41.964" x2="139.849" y2="41.964" gradientUnits="userSpaceOnUse">
<stop stop-color="#26B3FA"/>
<stop offset="1" stop-color="#26B3FA"/>
</linearGradient>
<linearGradient id="paint2_linear" x1="69.153" y1="42.6864" x2="628.07" y2="42.6864" gradientUnits="userSpaceOnUse">
<stop stop-color="#26B3FA"/>
<stop offset="1" stop-color="#26B3FA"/>
</linearGradient>
<linearGradient id="paint3_linear" x1="72.8093" y1="4.4918" x2="194.667" y2="4.4918" gradientUnits="userSpaceOnUse">
<stop stop-color="#26B3FA"/>
<stop offset="1" stop-color="#26B3FA"/>
</linearGradient>
</defs>
</svg>
